
<!-- Generator: visioncortex VTracer 0.6.4 -->
<svg version="1.1" xmlns="http://www.w3.org/2000/svg" viewBox="0 0 1602 418" preserveAspectRatio="xMidYMid meet">
<path d="M0 0 C0.629 0.447 1.257 0.893 1.905 1.354 C10.934 7.791 19.374 14.655 27.329 22.38 C28.482 23.498 29.642 24.609 30.808 25.714 C50.433 44.322 65.689 66.453 77 91 C77.531 92.134 78.062 93.269 78.609 94.438 C100.852 143.967 103.644 204.98 84.881 256.046 C69.353 296.295 43.629 332.814 9 359 C8.144 359.655 8.144 359.655 7.271 360.323 C-3.37 368.436 -13.964 376.306 -27 380 C-35.437 372.538 -43.612 364.806 -51.801 357.074 C-55.236 353.834 -58.68 350.604 -62.125 347.375 C-62.783 346.758 -63.441 346.141 -64.12 345.505 C-69.192 340.753 -74.273 336.01 -79.356 331.269 C-83.911 327.02 -88.457 322.762 -93 318.5 C-94.999 316.626 -96.997 314.753 -98.996 312.879 C-100.343 311.616 -101.689 310.353 -103.035 309.09 C-113.362 299.372 -113.362 299.372 -124 290 C-135.375 299.565 -146.104 309.881 -156.931 320.056 C-160.306 323.227 -163.684 326.395 -167.062 329.562 C-167.725 330.184 -168.387 330.805 -169.069 331.444 C-174.158 336.214 -179.255 340.974 -184.356 345.731 C-189.574 350.599 -194.78 355.479 -199.984 360.362 C-206.978 366.92 -213.988 373.461 -221 380 C-227.031 378.223 -232.221 376.035 -237.5 372.625 C-238.177 372.194 -238.853 371.764 -239.55 371.32 C-247.723 366.019 -255.395 360.076 -263 354 C-263.844 353.334 -263.844 353.334 -264.705 352.655 C-310.647 316.203 -337.387 263.402 -344.294 205.533 C-349.596 153.869 -337.038 99.094 -306 57 C-305.601 56.454 -305.202 55.908 -304.791 55.345 C-292.646 38.828 -279.158 23.688 -263 11 C-261.957 10.165 -260.914 9.331 -259.871 8.496 C-252.583 2.718 -245.032 -2.29 -237 -7 C-235.97 -7.634 -234.94 -8.268 -233.879 -8.922 C-164.219 -50.734 -66.188 -47.812 0 0 Z M-229 31 C-229.524 31.385 -230.047 31.77 -230.586 32.167 C-238.09 37.708 -245.224 43.582 -252 50 C-252.933 50.869 -253.867 51.738 -254.828 52.633 C-267.456 64.637 -277.668 78.734 -286 94 C-286.344 94.627 -286.687 95.254 -287.042 95.9 C-306.105 131.155 -313.693 172.361 -307 212 C-306.882 212.719 -306.763 213.437 -306.642 214.178 C-302.091 240.787 -292.163 267.23 -276 289 C-275.232 290.051 -274.463 291.101 -273.672 292.184 C-267.925 299.915 -261.633 307.023 -255 314 C-254.37 314.695 -253.739 315.39 -253.09 316.105 C-246.577 323.047 -238.666 328.418 -231 334 C-227.275 332.247 -224.708 330.074 -221.688 327.25 C-221.17 326.768 -220.652 326.287 -220.118 325.79 C-218.996 324.745 -217.876 323.698 -216.758 322.649 C-214.978 320.979 -213.193 319.315 -211.406 317.652 C-207.599 314.107 -203.799 310.554 -200 307 C-192.349 299.847 -184.689 292.704 -176.984 285.609 C-171.941 280.959 -166.942 276.263 -161.942 271.567 C-157.303 267.213 -152.644 262.881 -147.953 258.583 C-144.86 255.742 -141.807 252.865 -138.777 249.957 C-137.696 248.925 -137.696 248.925 -136.594 247.873 C-135.183 246.525 -133.778 245.171 -132.379 243.811 C-131.737 243.199 -131.095 242.587 -130.434 241.957 C-129.867 241.41 -129.3 240.863 -128.717 240.3 C-126.743 238.805 -125.472 238.194 -123 238 C-121.375 238.981 -121.375 238.981 -119.785 240.543 C-119.188 241.116 -118.591 241.69 -117.975 242.281 C-117.344 242.91 -116.713 243.539 -116.062 244.188 C-114.718 245.486 -113.373 246.784 -112.027 248.082 C-111.353 248.74 -110.679 249.398 -109.984 250.077 C-107.078 252.894 -104.106 255.638 -101.125 258.375 C-100.596 258.863 -100.068 259.351 -99.523 259.853 C-95.066 263.96 -90.553 268 -86 272 C-77.623 268.14 -70.229 263.73 -63 258 C-61.861 257.111 -61.861 257.111 -60.699 256.203 C-43.471 241.882 -33.328 221.642 -29 200 C-63.98 200 -98.96 200 -135 200 C-135 187.79 -135 175.58 -135 163 C-88.14 163 -41.28 163 7 163 C4.338 202.924 1.375 235.229 -25 266 C-25.65 266.789 -26.299 267.578 -26.969 268.391 C-35.839 278.955 -47.499 287.488 -59 295 C-57.511 298.598 -55.502 300.546 -52.562 303.062 C-48.686 306.458 -44.993 309.956 -41.375 313.625 C-37.704 317.337 -33.962 320.845 -29.992 324.23 C-26.155 327.639 -22.591 331.335 -19 335 C-8.293 328.797 0.319 319.696 9 311 C9.599 310.447 10.199 309.894 10.816 309.324 C40.044 281.927 58.53 236.675 60.161 197.089 C60.181 195.73 60.194 194.371 60.203 193.012 C60.21 192.275 60.217 191.539 60.224 190.78 C60.242 188.416 60.248 186.052 60.25 183.688 C60.251 182.879 60.251 182.071 60.252 181.239 C60.236 169.242 59.798 157.715 57 146 C56.823 145.225 56.646 144.45 56.464 143.651 C45.03 94.304 14.108 50.839 -28.815 23.859 C-88.404 -12.709 -172.45 -11.027 -229 31 Z " fill="#0E0099" transform="translate(345,38)"/>
<path d="M0 0 C1.218 0.339 1.218 0.339 2.46 0.684 C25.741 7.389 43.927 19.109 62 35 C62.639 35.519 63.279 36.039 63.938 36.574 C65 38 65 38 64.746 39.902 C63.894 42.297 62.995 43.295 61.121 44.988 C60.533 45.527 59.945 46.065 59.339 46.62 C58.712 47.178 58.084 47.737 57.438 48.312 C56.802 48.888 56.167 49.464 55.512 50.058 C53.682 51.713 51.841 53.357 50 55 C49.153 55.771 48.306 56.542 47.434 57.336 C44.391 60.073 41.739 62.278 38 64 C37.134 63.051 36.268 62.103 35.375 61.125 C22.883 48.709 6.976 40.331 -10 36 C-10.82 35.774 -11.64 35.549 -12.484 35.316 C-37.052 29.644 -63.333 35.97 -84.617 48.672 C-90.723 52.7 -95.882 57.812 -101 63 C-101.835 63.825 -102.671 64.65 -103.531 65.5 C-109.709 71.932 -113.923 79.15 -118 87 C-118.485 87.905 -118.969 88.81 -119.469 89.742 C-124.793 100.423 -127.506 113.101 -128 125 C-128.04 125.673 -128.08 126.346 -128.121 127.039 C-128.868 150.493 -120.467 174.378 -104.688 191.73 C-103 194 -103 194 -103 198 C-105.02 200.474 -105.02 200.474 -107.812 203.203 C-108.301 203.686 -108.789 204.168 -109.292 204.666 C-110.852 206.203 -112.426 207.727 -114 209.25 C-115.061 210.291 -116.121 211.332 -117.18 212.375 C-119.776 214.927 -122.385 217.467 -125 220 C-139.531 213.324 -150.07 190.738 -155.727 176.629 C-157.2 172.431 -158.527 168.215 -159.75 163.938 C-159.949 163.242 -160.148 162.547 -160.353 161.83 C-163.452 150.308 -164.391 138.838 -164.375 126.938 C-164.374 126.263 -164.374 125.588 -164.373 124.893 C-164.246 90.292 -150.557 61.008 -127 36 C-126.35 35.274 -125.701 34.549 -125.031 33.801 C-95.105 1.745 -41.918 -11.678 0 0 Z " fill="#0E0099" transform="translate(253,92)"/>
<path d="M0 0 C11.55 0 23.1 0 35 0 C40.33 10.242 45.115 20.653 49.688 31.25 C50.101 32.207 50.101 32.207 50.522 33.183 C52.361 37.45 54.184 41.724 56 46 C56.746 47.743 56.746 47.743 57.506 49.521 C57.964 50.602 58.423 51.683 58.895 52.797 C59.302 53.754 59.709 54.712 60.128 55.698 C61 58 61 58 61 60 C61.66 60 62.32 60 63 60 C63.091 59.36 63.181 58.72 63.275 58.06 C64.272 53.852 65.932 50.015 67.605 46.035 C67.967 45.165 68.329 44.296 68.701 43.4 C69.859 40.619 71.023 37.841 72.188 35.062 C72.952 33.229 73.715 31.395 74.479 29.561 C78.596 19.682 82.784 9.838 87 0 C97.56 0 108.12 0 119 0 C119 0.66 119 1.32 119 2 C118.374 2.182 117.747 2.364 117.102 2.551 C116.284 2.802 115.467 3.054 114.625 3.312 C113.813 3.556 113.001 3.8 112.164 4.051 C109.668 4.914 109.668 4.914 108 8 C107.965 10.896 108.055 13.665 108.254 16.547 C108.306 17.423 108.359 18.299 108.413 19.202 C108.594 22.136 108.795 25.068 109 28 C109.07 29.027 109.141 30.054 109.213 31.112 C109.669 37.697 110.161 44.278 110.675 50.859 C110.94 54.287 111.196 57.716 111.451 61.145 C111.622 63.352 111.793 65.559 111.965 67.766 C112.039 68.777 112.113 69.789 112.189 70.831 C112.775 80.667 112.775 80.667 116.812 89.375 C119.128 91.095 121.271 92.09 124 93 C124 93.66 124 94.32 124 95 C109.48 95 94.96 95 80 95 C80 94.34 80 93.68 80 93 C80.638 92.746 81.276 92.492 81.934 92.23 C82.76 91.886 83.586 91.542 84.438 91.188 C85.261 90.851 86.085 90.515 86.934 90.168 C89.334 89.116 89.334 89.116 90 86 C90.117 82.562 89.9 79.123 89.75 75.688 C89.706 74.625 89.663 73.562 89.617 72.467 C88.857 55.951 87.383 39.473 86 23 C84.323 27.082 82.646 31.165 80.97 35.248 C79.525 38.767 78.077 42.286 76.628 45.803 C73.088 54.406 69.58 63.019 66.184 71.68 C65.315 73.879 64.445 76.078 63.574 78.277 C63.026 79.673 62.483 81.071 61.945 82.472 C61.201 84.411 60.439 86.343 59.672 88.273 C59.25 89.361 58.828 90.448 58.394 91.568 C57 94 57 94 54.833 94.858 C53.926 94.928 53.926 94.928 53 95 C47.744 84.824 43.084 74.483 38.625 63.938 C37.969 62.395 37.313 60.853 36.656 59.311 C35.364 56.276 34.074 53.241 32.786 50.204 C30.393 44.567 27.978 38.94 25.562 33.312 C24.375 30.542 23.187 27.771 22 25 C21.42 30.83 20.851 36.661 20.291 42.493 C20.1 44.469 19.906 46.445 19.709 48.421 C16.117 69.566 16.117 69.566 21 89 C23.986 90.991 26.597 91.941 30 93 C29.505 94.485 29.505 94.485 29 96 C18.44 96 7.88 96 -3 96 C-3 94.68 -3 93.36 -3 92 C-1.721 91.773 -0.442 91.546 0.875 91.312 C4.277 90.523 4.277 90.523 6.375 87.812 C6.581 86.884 6.788 85.956 7 85 C7.312 84.041 7.624 83.083 7.945 82.095 C9.484 76.732 9.917 71.203 10.508 65.672 C10.638 64.487 10.769 63.302 10.903 62.082 C11.176 59.581 11.447 57.079 11.714 54.578 C12.122 50.776 12.543 46.976 12.965 43.176 C13.23 40.737 13.494 38.298 13.758 35.859 C13.883 34.735 14.008 33.611 14.137 32.452 C15.873 20.563 15.873 20.563 13.688 9.125 C9.552 5.855 4.863 3.97 0 2 C0 1.34 0 0.68 0 0 Z " fill="#0E0099" transform="translate(996,32)"/>
<path d="M0 0 C14.85 0 29.7 0 45 0 C45 0.66 45 1.32 45 2 C43.866 2.474 42.731 2.949 41.562 3.438 C38.243 4.636 38.243 4.636 37 6 C36.521 11.982 37.911 16.76 39.809 22.398 C40.095 23.274 40.381 24.15 40.676 25.052 C41.279 26.89 41.887 28.727 42.499 30.563 C43.44 33.384 44.367 36.209 45.291 39.035 C45.879 40.823 46.469 42.611 47.059 44.398 C47.338 45.246 47.617 46.094 47.905 46.968 C48.927 50.778 48.927 50.778 51 54 C53.147 47.972 55.282 41.939 57.409 35.903 C58.133 33.851 58.861 31.799 59.591 29.749 C60.641 26.8 61.681 23.848 62.719 20.895 C63.047 19.98 63.375 19.065 63.713 18.123 C64.163 16.832 64.163 16.832 64.623 15.515 C64.89 14.762 65.156 14.009 65.431 13.234 C66.064 10.749 66.099 8.554 66 6 C62.705 4.277 59.669 2.706 56 2 C56 1.34 56 0.68 56 0 C70.19 0 84.38 0 99 0 C99 0.66 99 1.32 99 2 C95.535 3.485 95.535 3.485 92 5 C92.529 11.547 93.798 17.217 95.941 23.41 C96.372 24.69 96.372 24.69 96.812 25.995 C97.72 28.687 98.641 31.375 99.562 34.062 C100.185 35.9 100.807 37.738 101.428 39.576 C102.942 44.054 104.468 48.528 106 53 C109.192 45.366 111.945 37.599 114.574 29.758 C115.255 27.737 115.948 25.72 116.641 23.703 C117.079 22.401 117.516 21.099 117.953 19.797 C118.347 18.635 118.74 17.473 119.146 16.276 C120.005 12.979 120.31 10.388 120 7 C117.426 3.139 115.39 3.057 111 2 C111 1.34 111 0.68 111 0 C121.23 0 131.46 0 142 0 C142 0.66 142 1.32 142 2 C140.804 2.474 139.608 2.949 138.375 3.438 C127.811 8.869 125.217 22.118 121.797 32.582 C121.229 34.286 120.659 35.99 120.088 37.694 C118.598 42.152 117.123 46.615 115.652 51.079 C113.571 57.385 111.469 63.685 109.369 69.985 C108.253 73.334 107.142 76.685 106.037 80.038 C105.531 81.565 105.025 83.093 104.519 84.62 C104.292 85.312 104.066 86.003 103.832 86.716 C102.76 89.941 101.635 93.015 100 96 C99.01 96 98.02 96 97 96 C96.639 94.941 96.277 93.883 95.905 92.792 C87.623 68.521 79.324 44.256 71 20 C70.748 20.733 70.496 21.466 70.236 22.222 C67.84 29.193 65.443 36.164 63.045 43.135 C61.813 46.717 60.581 50.299 59.349 53.882 C58.157 57.351 56.964 60.82 55.77 64.289 C55.319 65.6 54.868 66.911 54.418 68.223 C51.343 77.172 48.201 86.095 45 95 C43.68 95 42.36 95 41 95 C39.27 89.958 37.542 84.916 35.816 79.873 C35.189 78.042 34.562 76.212 33.935 74.382 C30.259 63.654 26.626 52.914 23.094 42.137 C22.464 40.221 21.834 38.304 21.204 36.388 C19.999 32.724 18.807 29.056 17.621 25.385 C17.068 23.701 16.515 22.016 15.961 20.332 C15.72 19.574 15.479 18.817 15.23 18.036 C13.243 12.046 10.688 6.275 5 3 C2.351 2.286 2.351 2.286 0 2 C0 1.34 0 0.68 0 0 Z " fill="#0E0099" transform="translate(1411,32)"/>
<path d="M0 0 C1.443 0.012 1.443 0.012 2.915 0.025 C16.305 0.342 26.573 4.225 36.406 13.539 C45.673 23.324 50.02 35.32 50.625 48.75 C50.117 63.856 44.703 76.955 33.746 87.395 C20.588 97.901 5.289 98.643 -10.812 97.438 C-21.736 95.519 -32.25 89.379 -39.25 80.746 C-47.996 67.825 -51.659 53.666 -48.75 38.25 C-45.671 26.002 -39.716 14.903 -29.141 7.59 C-19.806 2.224 -10.733 -0.12 0 0 Z M-16.438 11.668 C-25.162 22.896 -26.16 35.072 -26.125 48.75 C-26.141 49.992 -26.157 51.234 -26.174 52.514 C-26.18 64.567 -24.462 75.747 -16.812 85.438 C-10.722 91.05 -5.193 91.8 2.824 91.711 C9.218 91.191 14.036 88.994 18.5 84.375 C28.821 71.072 27.796 49.637 25.871 33.842 C24.049 23.733 20.157 15.11 12.086 8.625 C3.623 3.331 -9.15 4.815 -16.438 11.668 Z " fill="#0E0099" transform="translate(1144.8125,190.5625)"/>
<path d="M0 0 C1.443 0.012 1.443 0.012 2.915 0.025 C16.305 0.342 26.573 4.225 36.406 13.539 C45.673 23.324 50.02 35.32 50.625 48.75 C50.117 63.856 44.703 76.955 33.746 87.395 C20.588 97.901 5.289 98.643 -10.812 97.438 C-21.736 95.519 -32.25 89.379 -39.25 80.746 C-47.996 67.825 -51.659 53.666 -48.75 38.25 C-45.671 26.002 -39.716 14.903 -29.141 7.59 C-19.806 2.224 -10.733 -0.12 0 0 Z M-16.438 11.668 C-25.162 22.896 -26.16 35.072 -26.125 48.75 C-26.141 49.992 -26.157 51.234 -26.174 52.514 C-26.18 64.567 -24.462 75.747 -16.812 85.438 C-10.722 91.05 -5.193 91.8 2.824 91.711 C9.218 91.191 14.036 88.994 18.5 84.375 C28.821 71.072 27.796 49.637 25.871 33.842 C24.049 23.733 20.157 15.11 12.086 8.625 C3.623 3.331 -9.15 4.815 -16.438 11.668 Z " fill="#0E0099" transform="translate(955.8125,190.5625)"/>
<path d="M0 0 C4.999 -0.174 9.995 -0.3 14.996 -0.385 C16.695 -0.42 18.393 -0.467 20.091 -0.528 C34.183 -1.02 34.183 -1.02 38.604 1.462 C40.376 3.22 41.665 4.899 43 7 C44.027 8.221 45.067 9.431 46.125 10.625 C46.695 11.288 47.265 11.95 47.852 12.633 C50.631 15.696 53.559 18.592 56.5 21.5 C60.533 25.488 64.394 29.515 68.062 33.844 C71.296 37.442 74.776 40.796 78.216 44.196 C82.349 48.3 86.246 52.545 90 57 C90.33 57.33 90.66 57.66 91 58 C91.101 51.256 91.172 44.512 91.22 37.767 C91.24 35.473 91.267 33.179 91.302 30.885 C91.35 27.586 91.373 24.288 91.391 20.988 C91.411 19.964 91.432 18.94 91.453 17.885 C91.46 12.096 91.46 12.096 89.123 6.885 C86.842 4.859 85.173 4.004 82.25 3.188 C81.451 2.954 80.652 2.721 79.828 2.48 C79.225 2.322 78.622 2.163 78 2 C78 1.34 78 0.68 78 0 C89.22 0 100.44 0 112 0 C112 0.66 112 1.32 112 2 C110.742 2.392 109.484 2.784 108.188 3.188 C105.158 4.322 104.134 4.832 102.062 7.438 C100.043 12.307 99.835 16.743 99.795 21.981 C99.785 22.782 99.775 23.582 99.765 24.407 C99.733 27.047 99.708 29.688 99.684 32.328 C99.663 34.161 99.642 35.994 99.621 37.826 C99.565 42.646 99.516 47.467 99.468 52.287 C99.418 57.207 99.362 62.127 99.307 67.047 C99.199 76.698 99.098 86.349 99 96 C95.487 95.238 93.897 94.265 91.355 91.684 C90.678 91.001 90.001 90.318 89.303 89.615 C88.605 88.897 87.907 88.178 87.188 87.438 C86.501 86.746 85.815 86.054 85.107 85.342 C81.121 81.295 77.328 77.126 73.615 72.828 C71.35 70.263 68.948 67.891 66.5 65.5 C62.757 61.813 59.217 58.025 55.809 54.027 C52.827 50.685 49.599 47.592 46.414 44.445 C43.759 41.756 41.294 38.953 38.844 36.078 C36.9 33.887 34.869 31.821 32.789 29.758 C32.077 29.05 31.365 28.343 30.631 27.614 C29.824 26.815 29.824 26.815 29 26 C28.93 33.345 28.877 40.691 28.845 48.037 C28.829 51.448 28.808 54.859 28.774 58.27 C28.735 62.194 28.72 66.118 28.707 70.043 C28.692 71.264 28.676 72.485 28.66 73.743 C28.66 74.884 28.66 76.025 28.659 77.2 C28.653 78.201 28.646 79.203 28.639 80.235 C29.059 83.455 30.24 85.308 32 88 C32 88.66 32 89.32 32 90 C34.97 90.66 37.94 91.32 41 92 C41 92.99 41 93.98 41 95 C29.78 95 18.56 95 7 95 C7 94.01 7 93.02 7 92 C8.921 91.674 10.841 91.349 12.762 91.023 C16.301 89.405 18.319 87.454 20 84 C20.81 78.952 20.802 73.919 20.805 68.82 C20.818 67.323 20.833 65.827 20.848 64.33 C20.873 61.198 20.879 58.066 20.872 54.934 C20.865 50.936 20.923 46.942 20.998 42.944 C21.047 39.854 21.053 36.765 21.049 33.674 C21.053 32.201 21.071 30.728 21.104 29.256 C21.393 20.833 21.393 20.833 18.041 13.34 C15.786 11.298 13.574 9.613 11 8 C9.916 7.309 8.832 6.618 7.715 5.906 C6.798 5.442 5.882 4.978 4.938 4.5 C3.998 4.015 3.058 3.531 2.09 3.031 C1.4 2.691 0.711 2.351 0 2 C0 1.34 0 0.68 0 0 Z " fill="#0E0099" transform="translate(789,192)"/>
<path d="M0 0 C4.999 -0.174 9.995 -0.3 14.996 -0.385 C16.695 -0.42 18.393 -0.467 20.091 -0.528 C34.183 -1.02 34.183 -1.02 38.604 1.462 C40.376 3.22 41.665 4.899 43 7 C44.027 8.221 45.067 9.431 46.125 10.625 C46.695 11.288 47.265 11.95 47.852 12.633 C50.631 15.696 53.559 18.592 56.5 21.5 C60.533 25.488 64.394 29.515 68.062 33.844 C71.296 37.442 74.776 40.796 78.216 44.196 C82.349 48.3 86.246 52.545 90 57 C90.33 57.33 90.66 57.66 91 58 C91.101 51.256 91.172 44.512 91.22 37.767 C91.24 35.473 91.267 33.179 91.302 30.885 C91.35 27.586 91.373 24.288 91.391 20.988 C91.411 19.964 91.432 18.94 91.453 17.885 C91.46 12.096 91.46 12.096 89.123 6.885 C86.842 4.859 85.173 4.004 82.25 3.188 C81.451 2.954 80.652 2.721 79.828 2.48 C79.225 2.322 78.622 2.163 78 2 C78 1.34 78 0.68 78 0 C89.22 0 100.44 0 112 0 C112 0.66 112 1.32 112 2 C110.742 2.392 109.484 2.784 108.188 3.188 C105.158 4.322 104.134 4.832 102.062 7.438 C100.043 12.307 99.835 16.743 99.795 21.981 C99.785 22.782 99.775 23.582 99.765 24.407 C99.733 27.047 99.708 29.688 99.684 32.328 C99.663 34.161 99.642 35.994 99.621 37.826 C99.565 42.646 99.516 47.467 99.468 52.287 C99.418 57.207 99.362 62.127 99.307 67.047 C99.199 76.698 99.098 86.349 99 96 C95.487 95.238 93.897 94.265 91.355 91.684 C90.678 91.001 90.001 90.318 89.303 89.615 C88.605 88.897 87.907 88.178 87.188 87.438 C86.501 86.746 85.815 86.054 85.107 85.342 C81.121 81.295 77.328 77.126 73.615 72.828 C71.35 70.263 68.948 67.891 66.5 65.5 C62.757 61.813 59.217 58.025 55.809 54.027 C52.827 50.685 49.599 47.592 46.414 44.445 C43.759 41.756 41.294 38.953 38.844 36.078 C36.9 33.887 34.869 31.821 32.789 29.758 C32.077 29.05 31.365 28.343 30.631 27.614 C29.824 26.815 29.824 26.815 29 26 C28.93 33.345 28.877 40.691 28.845 48.037 C28.829 51.448 28.808 54.859 28.774 58.27 C28.735 62.194 28.72 66.118 28.707 70.043 C28.692 71.264 28.676 72.485 28.66 73.743 C28.66 74.884 28.66 76.025 28.659 77.2 C28.653 78.201 28.646 79.203 28.639 80.235 C29.059 83.455 30.24 85.308 32 88 C32 88.66 32 89.32 32 90 C34.97 90.66 37.94 91.32 41 92 C41 92.99 41 93.98 41 95 C29.78 95 18.56 95 7 95 C7 94.01 7 93.02 7 92 C8.921 91.674 10.841 91.349 12.762 91.023 C16.301 89.405 18.319 87.454 20 84 C20.81 78.952 20.802 73.919 20.805 68.82 C20.818 67.323 20.833 65.827 20.848 64.33 C20.873 61.198 20.879 58.066 20.872 54.934 C20.865 50.936 20.923 46.942 20.998 42.944 C21.047 39.854 21.053 36.765 21.049 33.674 C21.053 32.201 21.071 30.728 21.104 29.256 C21.393 20.833 21.393 20.833 18.041 13.34 C15.786 11.298 13.574 9.613 11 8 C9.916 7.309 8.832 6.618 7.715 5.906 C6.798 5.442 5.882 4.978 4.938 4.5 C3.998 4.015 3.058 3.531 2.09 3.031 C1.4 2.691 0.711 2.351 0 2 C0 1.34 0 0.68 0 0 Z " fill="#0E0099" transform="translate(626,32)"/>
<path d="M0 0 C28.38 0 56.76 0 86 0 C78.187 12.277 78.187 12.277 74.25 17.688 C70.729 22.563 67.271 27.474 63.875 32.438 C59.282 39.148 54.648 45.828 50 52.5 C45.277 59.282 40.559 66.067 35.875 72.875 C35.256 73.773 35.256 73.773 34.625 74.689 C31.37 79.429 28.181 84.211 25 89 C31.138 88.931 37.276 88.843 43.414 88.738 C45.5 88.704 47.587 88.676 49.673 88.654 C52.68 88.62 55.685 88.568 58.691 88.512 C60.081 88.502 60.081 88.502 61.498 88.492 C68.489 88.335 73.56 87.44 78.688 82.312 C81.346 78.818 83.152 74.97 85 71 C86.485 71.495 86.485 71.495 88 72 C86.68 79.59 85.36 87.18 84 95 C54.3 95 24.6 95 -6 95 C2.022 82.394 2.022 82.394 6.25 76.312 C7.206 74.93 8.162 73.547 9.117 72.164 C9.596 71.472 10.076 70.78 10.569 70.067 C12.845 66.779 15.11 63.483 17.375 60.188 C17.823 59.536 18.272 58.884 18.733 58.212 C22.33 52.98 25.916 47.741 29.5 42.5 C33.62 36.476 37.743 30.453 41.875 24.438 C42.291 23.832 42.706 23.226 43.135 22.602 C46.725 17.379 50.36 12.188 54 7 C48.432 6.901 42.864 6.828 37.295 6.78 C35.402 6.76 33.51 6.733 31.618 6.698 C28.89 6.649 26.162 6.627 23.434 6.609 C22.595 6.589 21.756 6.568 20.892 6.547 C15.093 6.545 11.782 7.688 7 11 C5.477 12.571 5.477 12.571 4.688 14.312 C4.387 14.908 4.087 15.504 3.777 16.117 C2.574 19.032 1.75 21.937 1 25 C0.01 25 -0.98 25 -2 25 C-1.34 16.75 -0.68 8.5 0 0 Z " fill="#0E0099" transform="translate(746,32)"/>
<path d="M0 0 C1.352 0.005 1.352 0.005 2.73 0.01 C10.288 0.164 17.216 1.521 24.469 3.562 C27.489 4.324 29.853 4.627 32.938 4.438 C33.598 3.118 34.257 1.798 34.938 0.438 C35.928 0.438 36.918 0.438 37.938 0.438 C37.938 9.678 37.938 18.917 37.938 28.438 C36.947 28.438 35.957 28.438 34.938 28.438 C34.381 27.241 33.824 26.045 33.25 24.812 C28.562 15.599 22.233 11.384 13 7.062 C4.046 5.235 -3.891 6.318 -12.062 10.438 C-20.238 17.047 -23.688 26.3 -25.062 36.438 C-26.323 52.577 -26.711 68.965 -16.754 82.566 C-11.75 88.101 -5.42 90.745 1.938 91.438 C6.959 91.565 10.464 91.436 14.699 88.566 C17.991 83.964 17.634 79.957 17.5 74.438 C17.516 72.96 17.516 72.96 17.533 71.453 C17.488 66.987 17.388 64.195 15.074 60.301 C12.66 58.195 11.1 57.701 7.938 57.438 C7.938 56.447 7.938 55.458 7.938 54.438 C21.467 54.438 34.997 54.438 48.938 54.438 C47.938 57.438 47.938 57.438 44.938 59 C43.947 59.474 42.957 59.949 41.938 60.438 C40.515 63.283 40.718 65.8 40.621 68.977 C40.579 70.279 40.537 71.58 40.494 72.922 C40.454 74.302 40.415 75.682 40.375 77.062 C40.332 78.451 40.288 79.839 40.244 81.227 C40.138 84.63 40.036 88.034 39.938 91.438 C37.23 92.254 34.522 93.066 31.812 93.875 C31.052 94.105 30.291 94.335 29.508 94.572 C21.173 97.051 13.495 97.646 4.812 97.688 C3.215 97.718 3.215 97.718 1.586 97.75 C-12.746 97.82 -25.443 94.123 -35.938 84.062 C-46.08 73.178 -49.699 61.166 -49.535 46.397 C-49.057 33.441 -43.731 21.027 -34.168 12.098 C-23.895 3.997 -13.038 -0.148 0 0 Z " fill="#0E0099" transform="translate(1254.0625,190.5625)"/>
<path d="M0 0 C1.352 0.005 1.352 0.005 2.73 0.01 C10.288 0.164 17.216 1.521 24.469 3.562 C27.489 4.324 29.853 4.627 32.938 4.438 C33.598 3.117 34.257 1.797 34.938 0.438 C35.928 0.438 36.918 0.438 37.938 0.438 C37.938 9.678 37.938 18.918 37.938 28.438 C36.947 28.438 35.957 28.438 34.938 28.438 C34.381 27.241 33.824 26.045 33.25 24.812 C28.562 15.599 22.233 11.384 13 7.062 C4.046 5.235 -3.891 6.318 -12.062 10.438 C-20.238 17.047 -23.688 26.3 -25.062 36.438 C-26.323 52.577 -26.711 68.965 -16.754 82.566 C-11.75 88.101 -5.42 90.745 1.938 91.438 C6.959 91.565 10.464 91.436 14.699 88.566 C17.991 83.964 17.634 79.957 17.5 74.438 C17.516 72.96 17.516 72.96 17.533 71.453 C17.488 66.987 17.388 64.195 15.074 60.301 C12.66 58.195 11.1 57.701 7.938 57.438 C7.938 56.447 7.938 55.458 7.938 54.438 C21.467 54.438 34.997 54.438 48.938 54.438 C47.938 57.438 47.938 57.438 44.938 59 C43.947 59.474 42.957 59.949 41.938 60.438 C40.515 63.283 40.718 65.8 40.621 68.977 C40.579 70.279 40.537 71.58 40.494 72.922 C40.454 74.302 40.415 75.682 40.375 77.062 C40.332 78.451 40.288 79.839 40.244 81.227 C40.138 84.63 40.036 88.034 39.938 91.438 C37.23 92.254 34.522 93.066 31.812 93.875 C31.052 94.105 30.291 94.335 29.508 94.572 C21.173 97.051 13.495 97.646 4.812 97.688 C3.215 97.718 3.215 97.718 1.586 97.75 C-12.746 97.82 -25.443 94.123 -35.938 84.062 C-46.08 73.178 -49.699 61.166 -49.535 46.397 C-49.057 33.441 -43.731 21.027 -34.168 12.098 C-23.895 3.997 -13.038 -0.148 0 0 Z " fill="#0E0099" transform="translate(1361.0625,30.5625)"/>
<path d="M0 0 C1.352 0.005 1.352 0.005 2.73 0.01 C10.288 0.164 17.216 1.521 24.469 3.562 C27.489 4.324 29.853 4.627 32.938 4.438 C33.597 3.117 34.257 1.797 34.938 0.438 C35.928 0.438 36.918 0.438 37.938 0.438 C37.938 9.678 37.938 18.918 37.938 28.438 C36.947 28.438 35.957 28.438 34.938 28.438 C34.381 27.241 33.824 26.045 33.25 24.812 C28.562 15.599 22.233 11.384 13 7.062 C4.046 5.235 -3.891 6.318 -12.062 10.438 C-20.238 17.047 -23.688 26.3 -25.062 36.438 C-26.323 52.577 -26.711 68.965 -16.754 82.566 C-11.75 88.101 -5.42 90.745 1.938 91.438 C6.959 91.565 10.464 91.436 14.699 88.566 C17.991 83.964 17.634 79.957 17.5 74.438 C17.516 72.96 17.516 72.96 17.533 71.453 C17.488 66.987 17.388 64.195 15.074 60.301 C12.66 58.195 11.1 57.701 7.938 57.438 C7.938 56.447 7.938 55.458 7.938 54.438 C21.467 54.438 34.998 54.438 48.938 54.438 C47.938 57.438 47.938 57.438 44.938 59 C43.947 59.474 42.957 59.949 41.938 60.438 C40.515 63.283 40.718 65.8 40.621 68.977 C40.579 70.279 40.537 71.58 40.494 72.922 C40.454 74.302 40.415 75.682 40.375 77.062 C40.332 78.451 40.288 79.839 40.244 81.227 C40.138 84.63 40.036 88.034 39.938 91.438 C37.23 92.254 34.522 93.066 31.812 93.875 C31.052 94.105 30.291 94.335 29.508 94.572 C21.173 97.051 13.495 97.646 4.812 97.688 C3.215 97.718 3.215 97.718 1.586 97.75 C-12.746 97.82 -25.443 94.123 -35.938 84.062 C-46.08 73.178 -49.699 61.166 -49.535 46.397 C-49.057 33.441 -43.731 21.027 -34.168 12.098 C-23.895 3.997 -13.038 -0.148 0 0 Z " fill="#0E0099" transform="translate(469.0625,30.5625)"/>
<path d="M0 0 C22.77 0 45.54 0 69 0 C69.33 7.26 69.66 14.52 70 22 C69.01 22 68.02 22 67 22 C66.841 21.336 66.683 20.672 66.52 19.988 C66.17 18.664 66.17 18.664 65.812 17.312 C65.592 16.442 65.372 15.572 65.145 14.676 C63.546 10.939 62.385 9.356 59 7 C54.729 6.246 50.517 6.21 46.188 6.188 C42.166 6.126 38.144 6.064 34 6 C34 18.87 34 31.74 34 45 C39.043 44.907 39.043 44.907 44.188 44.812 C45.764 44.802 45.764 44.802 47.372 44.792 C51.976 44.638 54.333 44.505 58.094 41.656 C60.123 38.828 61.14 36.361 62 33 C62.66 33 63.32 33 64 33 C64 42.24 64 51.48 64 61 C63.34 61 62.68 61 62 61 C61.588 60.072 61.175 59.144 60.75 58.188 C58.992 54.985 58.052 53.847 55 52 C52.594 51.502 52.594 51.502 50.016 51.488 C48.614 51.435 48.614 51.435 47.184 51.381 C45.731 51.347 45.731 51.347 44.25 51.312 C43.266 51.278 42.283 51.244 41.27 51.209 C38.846 51.127 36.424 51.057 34 51 C34.019 55.467 34.071 59.931 34.153 64.397 C34.176 65.915 34.19 67.433 34.196 68.951 C34.205 71.139 34.246 73.324 34.293 75.512 C34.309 76.826 34.324 78.141 34.341 79.495 C35.161 83.856 36.497 85.345 40 88 C42.188 88.733 42.188 88.733 44.434 88.629 C45.655 88.632 45.655 88.632 46.9 88.635 C48.156 88.599 48.156 88.599 49.438 88.562 C50.271 88.573 51.104 88.584 51.963 88.596 C57.428 88.531 60.713 87.674 65 84 C67.793 80.493 69.475 76.193 71 72 C71.66 72 72.32 72 73 72 C73.027 74.312 73.047 76.625 73.062 78.938 C73.074 80.225 73.086 81.513 73.098 82.84 C72.994 87.241 72.486 91.625 72 96 C48.57 96 25.14 96 1 96 C0.67 95.01 0.34 94.02 0 93 C0.626 92.818 1.253 92.636 1.898 92.449 C2.716 92.198 3.533 91.946 4.375 91.688 C5.187 91.444 5.999 91.2 6.836 90.949 C9.332 90.086 9.332 90.086 11 87 C11.199 84.454 11.283 82.017 11.275 79.471 C11.28 78.706 11.285 77.942 11.29 77.154 C11.304 74.625 11.303 72.096 11.301 69.566 C11.305 67.809 11.309 66.052 11.314 64.294 C11.321 60.61 11.321 56.925 11.316 53.241 C11.31 48.519 11.327 43.796 11.35 39.074 C11.365 35.444 11.366 31.815 11.363 28.185 C11.363 26.444 11.368 24.703 11.378 22.962 C11.391 20.527 11.384 18.093 11.372 15.658 C11.38 14.939 11.388 14.219 11.395 13.478 C11.363 10.432 11.148 8.278 9.707 5.568 C7.104 3.177 4.427 3.259 1 3 C0.67 2.01 0.34 1.02 0 0 Z " fill="#0E0099" transform="translate(1355,192)"/>
<path d="M0 0 C22.77 0 45.54 0 69 0 C69.33 7.26 69.66 14.52 70 22 C69.01 22 68.02 22 67 22 C66.841 21.336 66.683 20.672 66.52 19.988 C66.17 18.664 66.17 18.664 65.812 17.312 C65.592 16.442 65.372 15.572 65.145 14.676 C63.546 10.939 62.385 9.356 59 7 C54.729 6.246 50.517 6.21 46.188 6.188 C42.166 6.126 38.144 6.064 34 6 C34 18.87 34 31.74 34 45 C39.043 44.907 39.043 44.907 44.188 44.812 C45.764 44.802 45.764 44.802 47.372 44.792 C51.976 44.638 54.333 44.505 58.094 41.656 C60.123 38.828 61.14 36.361 62 33 C62.66 33 63.32 33 64 33 C64 42.24 64 51.48 64 61 C63.34 61 62.68 61 62 61 C61.587 60.072 61.175 59.144 60.75 58.188 C58.992 54.985 58.052 53.847 55 52 C52.594 51.502 52.594 51.502 50.016 51.488 C48.614 51.435 48.614 51.435 47.184 51.381 C45.731 51.347 45.731 51.347 44.25 51.312 C43.266 51.278 42.283 51.244 41.27 51.209 C38.846 51.127 36.424 51.057 34 51 C34.019 55.467 34.071 59.931 34.153 64.397 C34.176 65.915 34.19 67.433 34.196 68.951 C34.205 71.139 34.246 73.324 34.293 75.512 C34.309 76.826 34.324 78.141 34.341 79.495 C35.161 83.856 36.497 85.345 40 88 C42.188 88.733 42.188 88.733 44.434 88.629 C45.655 88.632 45.655 88.632 46.9 88.635 C48.156 88.599 48.156 88.599 49.438 88.562 C50.271 88.573 51.104 88.584 51.963 88.596 C57.428 88.531 60.713 87.674 65 84 C67.793 80.493 69.475 76.193 71 72 C71.66 72 72.32 72 73 72 C73.027 74.312 73.047 76.625 73.062 78.938 C73.074 80.225 73.086 81.513 73.098 82.84 C72.994 87.241 72.486 91.625 72 96 C48.57 96 25.14 96 1 96 C0.67 95.01 0.34 94.02 0 93 C0.626 92.818 1.253 92.636 1.898 92.449 C2.716 92.198 3.533 91.946 4.375 91.688 C5.187 91.444 5.999 91.2 6.836 90.949 C9.332 90.086 9.332 90.086 11 87 C11.199 84.454 11.283 82.017 11.275 79.471 C11.28 78.706 11.285 77.942 11.29 77.154 C11.304 74.625 11.303 72.096 11.301 69.566 C11.305 67.809 11.309 66.052 11.314 64.294 C11.321 60.61 11.321 56.925 11.316 53.241 C11.31 48.519 11.327 43.796 11.35 39.074 C11.365 35.444 11.366 31.815 11.363 28.185 C11.363 26.444 11.368 24.703 11.378 22.962 C11.391 20.527 11.384 18.093 11.372 15.658 C11.38 14.939 11.388 14.219 11.395 13.478 C11.363 10.432 11.148 8.278 9.707 5.568 C7.104 3.177 4.427 3.259 1 3 C0.67 2.01 0.34 1.02 0 0 Z " fill="#0E0099" transform="translate(616,192)"/>
<path d="M0 0 C4.62 0 9.24 0 14 0 C18.628 11.372 23.092 22.798 27.418 34.289 C27.652 34.91 27.886 35.531 28.127 36.171 C30.31 41.966 32.491 47.764 34.663 53.564 C35.632 56.152 36.604 58.739 37.58 61.325 C38.486 63.727 39.388 66.131 40.284 68.537 C44.856 82.438 44.856 82.438 55 92 C56.646 92.716 58.307 93.403 60 94 C60 94.66 60 95.32 60 96 C45.15 96 30.3 96 15 96 C15 95.34 15 94.68 15 94 C16.134 93.608 17.269 93.216 18.438 92.812 C22.073 91.44 22.073 91.44 22.898 88.918 C23.045 84.715 21.676 81.39 20.188 77.5 C19.914 76.754 19.64 76.007 19.357 75.238 C18.23 72.182 17.067 69.158 15.801 66.156 C15 64 15 64 15 61 C5.43 61 -4.14 61 -14 61 C-14.99 64.63 -15.98 68.26 -17 72 C-18.062 75.08 -19.18 78.127 -20.328 81.176 C-21.128 84.536 -20.985 86.695 -20 90 C-17.845 91.933 -15.656 92.745 -13 94 C-13 94.66 -13 95.32 -13 96 C-22.57 96 -32.14 96 -42 96 C-42 95.34 -42 94.68 -42 94 C-40.143 92.769 -38.204 91.755 -36.238 90.707 C-29.588 85.635 -27.291 78.11 -24.707 70.488 C-24.125 68.816 -24.125 68.816 -23.531 67.111 C-22.281 63.515 -21.047 59.914 -19.812 56.312 C-18.961 53.855 -18.108 51.398 -17.255 48.941 C-15.585 44.133 -13.919 39.324 -12.258 34.513 C-9.497 26.531 -6.668 18.574 -3.812 10.625 C-3.409 9.5 -3.006 8.375 -2.591 7.216 C-1.729 4.81 -0.865 2.405 0 0 Z M-1 24 C-4.3 33.9 -7.6 43.8 -11 54 C-3.74 54 3.52 54 11 54 C9.793 47.966 7.719 42.5 5.562 36.75 C5.155 35.636 4.747 34.523 4.326 33.375 C3.931 32.318 3.536 31.261 3.129 30.172 C2.769 29.203 2.408 28.235 2.037 27.237 C1.211 24.846 1.211 24.846 -1 24 Z " fill="#0E0099" transform="translate(1165,31)"/>
<path d="M0 0 C4.62 0 9.24 0 14 0 C18.628 11.372 23.092 22.798 27.418 34.289 C27.652 34.91 27.886 35.531 28.127 36.171 C30.31 41.966 32.491 47.764 34.663 53.564 C35.632 56.152 36.604 58.739 37.58 61.325 C38.486 63.727 39.388 66.131 40.284 68.537 C44.856 82.438 44.856 82.438 55 92 C56.646 92.716 58.307 93.403 60 94 C60 94.66 60 95.32 60 96 C45.15 96 30.3 96 15 96 C15 95.34 15 94.68 15 94 C16.134 93.608 17.269 93.216 18.438 92.812 C22.073 91.44 22.073 91.44 22.898 88.918 C23.045 84.715 21.676 81.39 20.188 77.5 C19.914 76.754 19.64 76.007 19.357 75.238 C18.23 72.182 17.067 69.158 15.801 66.156 C15 64 15 64 15 61 C5.43 61 -4.14 61 -14 61 C-14.99 64.63 -15.98 68.26 -17 72 C-18.062 75.08 -19.18 78.127 -20.328 81.176 C-21.128 84.536 -20.985 86.695 -20 90 C-17.845 91.933 -15.656 92.745 -13 94 C-13 94.66 -13 95.32 -13 96 C-22.57 96 -32.14 96 -42 96 C-42 95.34 -42 94.68 -42 94 C-40.143 92.769 -38.204 91.755 -36.238 90.707 C-29.588 85.635 -27.291 78.11 -24.707 70.488 C-24.125 68.816 -24.125 68.816 -23.531 67.111 C-22.281 63.515 -21.047 59.914 -19.812 56.312 C-18.961 53.855 -18.108 51.398 -17.255 48.941 C-15.585 44.133 -13.919 39.324 -12.258 34.513 C-9.497 26.531 -6.668 18.574 -3.812 10.625 C-3.409 9.5 -3.006 8.375 -2.591 7.216 C-1.729 4.81 -0.865 2.405 0 0 Z M-1 24 C-4.3 33.9 -7.6 43.8 -11 54 C-3.74 54 3.52 54 11 54 C9.793 47.966 7.719 42.5 5.562 36.75 C5.155 35.636 4.747 34.523 4.326 33.375 C3.931 32.318 3.536 31.261 3.129 30.172 C2.769 29.203 2.408 28.235 2.037 27.237 C1.211 24.846 1.211 24.846 -1 24 Z " fill="#0E0099" transform="translate(563,31)"/>
<path d="M0 0 C3.405 0.743 6.533 0.761 10.008 0.656 C10.338 -0.334 10.668 -1.324 11.008 -2.344 C11.998 -2.344 12.988 -2.344 14.008 -2.344 C14.008 8.876 14.008 20.096 14.008 31.656 C13.018 31.656 12.028 31.656 11.008 31.656 C10.716 30.811 10.425 29.965 10.125 29.094 C6.682 19.565 3.247 11.734 -5.867 6.625 C-13.687 3.06 -22.059 2.774 -30.258 5.375 C-37.821 8.724 -42.168 14.782 -45.18 22.312 C-50.487 37.623 -49.793 55.693 -42.742 70.234 C-38.733 77.113 -32.965 80.988 -25.477 83.5 C-16.085 85.745 -7.326 84.517 1.008 79.656 C6.131 76.126 10.751 72.188 15.008 67.656 C15.623 76.454 15.623 76.454 13.633 80.344 C-0.313 92.629 -13.355 95.471 -31.419 94.835 C-43.071 94.024 -53.326 88.358 -60.992 79.656 C-69.136 69.978 -73.685 58.783 -73.238 45.934 C-71.613 30.89 -66.475 17.836 -54.992 7.656 C-38.76 -4.097 -18.984 -5.138 0 0 Z " fill="#0E0099" transform="translate(768.9921875,193.34375)"/>
<path d="M0 0 C15.51 0 31.02 0 47 0 C47 0.66 47 1.32 47 2 C44.69 2.99 42.38 3.98 40 5 C41.296 10.835 43.542 14.626 47.188 19.312 C48.178 20.622 49.168 21.932 50.156 23.242 C50.64 23.877 51.123 24.513 51.621 25.167 C54.527 29.03 57.257 33.021 60 37 C72.086 22.039 72.086 22.039 77 4 C74.36 3.34 71.72 2.68 69 2 C69 1.34 69 0.68 69 0 C81.21 0 93.42 0 106 0 C106 0.66 106 1.32 106 2 C104.84 2.311 104.84 2.311 103.656 2.629 C92.198 6.018 86.595 11.24 80.394 21.333 C78.739 23.959 76.941 26.371 74.993 28.786 C65.486 40.987 64.379 50.738 65.062 65.875 C65.097 67.879 65.126 69.883 65.15 71.887 C65.191 73.797 65.235 75.707 65.285 77.617 C65.307 78.503 65.329 79.388 65.352 80.3 C65.517 83.821 65.664 86.359 67.314 89.508 C69.879 91.778 72.715 92.256 76 93 C76 93.66 76 94.32 76 95 C61.15 95 46.3 95 31 95 C31 94.34 31 93.68 31 93 C31.626 92.841 32.253 92.683 32.898 92.52 C34.124 92.17 34.124 92.17 35.375 91.812 C36.187 91.592 36.999 91.372 37.836 91.145 C40.828 89.562 40.998 88.212 42 85 C43.741 71.157 45.914 52.581 37.697 40.595 C35.262 37.628 32.715 34.829 30.011 32.106 C26.499 28.427 23.552 24.311 20.5 20.25 C18.359 17.479 16.191 14.732 14 12 C13.477 11.34 12.954 10.68 12.416 10 C8.77 5.519 8.77 5.519 3.625 3.062 C2.429 2.712 1.232 2.361 0 2 C0 1.34 0 0.68 0 0 Z " fill="#0E0099" transform="translate(838,32)"/>
<path d="M0 0 C2.97 0.495 2.97 0.495 6 1 C8.494 1.09 10.991 1.128 13.487 1.129 C14.211 1.131 14.935 1.133 15.682 1.135 C18.06 1.139 20.438 1.136 22.816 1.133 C24.477 1.133 26.138 1.134 27.799 1.136 C31.273 1.137 34.747 1.135 38.221 1.13 C42.669 1.125 47.116 1.128 51.564 1.134 C54.991 1.138 58.418 1.136 61.846 1.134 C63.485 1.133 65.125 1.134 66.765 1.136 C69.058 1.139 71.35 1.135 73.643 1.129 C74.946 1.129 76.249 1.128 77.592 1.127 C81.292 1.08 81.292 1.08 86 0 C86.495 11.385 86.495 11.385 87 23 C86.01 23 85.02 23 84 23 C83.654 21.861 83.654 21.861 83.301 20.699 C82.975 19.705 82.649 18.711 82.312 17.688 C81.999 16.701 81.686 15.715 81.363 14.699 C79.611 11.231 78.565 10.585 75 9 C71.401 8.499 67.817 8.398 64.188 8.312 C63.208 8.278 62.229 8.244 61.221 8.209 C58.814 8.127 56.407 8.058 54 8 C54.108 18.362 54.22 28.723 54.339 39.085 C54.395 43.896 54.448 48.707 54.497 53.519 C54.545 58.161 54.597 62.804 54.653 67.446 C54.673 69.218 54.692 70.99 54.709 72.761 C54.733 75.242 54.763 77.722 54.795 80.202 C54.803 81.303 54.803 81.303 54.812 82.425 C54.815 87.314 54.815 87.314 56 92 C58.313 93.143 58.313 93.143 61.062 93.75 C62.441 94.114 62.441 94.114 63.848 94.484 C64.558 94.655 65.268 94.825 66 95 C66 95.66 66 96.32 66 97 C50.82 97 35.64 97 20 97 C20.495 95.515 20.495 95.515 21 94 C22.093 93.897 23.186 93.794 24.312 93.688 C27.796 93.267 27.796 93.267 29.703 91.949 C31.736 88.893 31.439 85.683 31.432 82.132 C31.443 81.332 31.453 80.532 31.463 79.707 C31.493 77.061 31.503 74.416 31.512 71.77 C31.529 69.935 31.547 68.101 31.566 66.267 C31.614 61.439 31.643 56.61 31.67 51.782 C31.699 46.855 31.746 41.929 31.791 37.002 C31.877 27.335 31.944 17.667 32 8 C28.75 8.139 25.5 8.288 22.25 8.438 C20.869 8.496 20.869 8.496 19.461 8.557 C18.127 8.619 18.127 8.619 16.766 8.684 C15.949 8.72 15.132 8.757 14.29 8.795 C12.066 8.994 10.112 9.273 8 10 C6.82 12.151 6.82 12.151 6 15 C5.464 16.44 4.922 17.877 4.375 19.312 C3.921 20.529 3.467 21.746 3 23 C2.01 23 1.02 23 0 23 C0 15.41 0 7.82 0 0 Z " fill="#0E0099" transform="translate(526,190)"/>
<path d="M0 0 C1.498 0.09 2.999 0.13 4.5 0.125 C5.253 0.128 6.006 0.13 6.781 0.133 C9.327 0.049 9.327 0.049 13 -1 C13 7.25 13 15.5 13 24 C11.68 23.67 10.36 23.34 9 23 C7.508 20.418 7.508 20.418 6.125 17.188 C3.697 12.025 2.192 9.37 -3 7 C-8.943 5.217 -14.881 4.978 -20.5 7.688 C-23.171 10.158 -24.242 11.461 -25 15 C-24.785 20.052 -23.175 23.11 -20 27 C-15.661 30.957 -10.843 34.133 -5.874 37.241 C4.53 43.752 14.951 50.854 19 63 C19.714 70.8 19.235 77.288 15 84 C9.455 90.594 2.752 95.368 -6.012 96.188 C-8.137 96.268 -10.249 96.277 -12.375 96.25 C-13.498 96.244 -13.498 96.244 -14.644 96.238 C-19.322 96.165 -23.605 95.698 -28.129 94.445 C-31.118 93.734 -33.942 93.87 -37 94 C-37.495 94.99 -37.495 94.99 -38 96 C-38.99 96 -39.98 96 -41 96 C-41 86.76 -41 77.52 -41 68 C-39.68 68 -38.36 68 -37 68 C-36.797 68.944 -36.797 68.944 -36.59 69.906 C-34.672 77.534 -31.584 83.087 -24.824 87.383 C-19.732 89.898 -15.632 90.715 -10 90 C-5.455 88.398 -1.233 86.466 1 82 C2.052 78.543 2.18 76.591 1.125 73.125 C-3.797 65.886 -10.707 61.425 -18.062 56.938 C-27.705 51.056 -36.272 45.184 -40 34 C-40.944 23.833 -39.258 15.76 -32.875 7.688 C-23.929 -1.617 -12.251 -3.232 0 0 Z " fill="#0E0099" transform="translate(1476,192)"/>
<path d="M0 0 C15.18 0 30.36 0 46 0 C46 0.66 46 1.32 46 2 C45.374 2.182 44.747 2.364 44.102 2.551 C43.284 2.802 42.467 3.054 41.625 3.312 C40.813 3.556 40.001 3.8 39.164 4.051 C36.668 4.914 36.668 4.914 35 8 C34.796 10.455 34.706 12.798 34.709 15.254 C34.703 15.989 34.696 16.724 34.689 17.482 C34.67 19.914 34.666 22.345 34.664 24.777 C34.658 26.467 34.651 28.157 34.644 29.848 C34.632 33.391 34.628 36.934 34.629 40.477 C34.63 45.018 34.602 49.559 34.568 54.099 C34.546 57.59 34.542 61.081 34.543 64.571 C34.54 66.246 34.531 67.92 34.516 69.594 C34.496 71.935 34.502 74.275 34.514 76.617 C34.497 77.654 34.497 77.654 34.48 78.713 C34.524 82.079 34.799 83.743 36.899 86.43 C39.285 88.213 40.392 88.503 43.336 88.496 C44.562 88.497 44.562 88.497 45.812 88.498 C46.658 88.478 47.504 88.458 48.375 88.438 C49.213 88.445 50.051 88.452 50.914 88.459 C56.828 88.399 61.17 87.484 65.758 83.457 C69.278 79.223 71.713 75.013 74 70 C74.66 70 75.32 70 76 70 C75.883 72.105 75.756 74.209 75.625 76.312 C75.555 77.484 75.486 78.656 75.414 79.863 C74.905 84.947 73.914 89.973 73 95 C48.91 95 24.82 95 0 95 C0 94.34 0 93.68 0 93 C0.626 92.83 1.253 92.66 1.898 92.484 C2.716 92.242 3.533 92 4.375 91.75 C5.187 91.518 5.999 91.286 6.836 91.047 C9.623 89.699 9.938 88.895 11 86 C11.19 83.476 11.273 81.064 11.259 78.541 C11.262 77.796 11.266 77.051 11.269 76.283 C11.278 73.824 11.272 71.365 11.266 68.906 C11.267 67.195 11.269 65.484 11.271 63.773 C11.274 60.189 11.27 56.604 11.261 53.02 C11.249 48.427 11.256 43.833 11.268 39.24 C11.275 35.707 11.273 32.175 11.268 28.642 C11.266 26.948 11.268 25.254 11.273 23.561 C11.278 21.193 11.27 18.826 11.259 16.459 C11.263 15.76 11.267 15.06 11.271 14.34 C11.24 10.752 11.091 7.989 9 5 C6.837 3.877 6.837 3.877 4.375 3.25 C3.558 3.008 2.74 2.765 1.898 2.516 C1.272 2.345 0.645 2.175 0 2 C0 1.34 0 0.68 0 0 Z " fill="#0E0099" transform="translate(1012,192)"/>
<path d="M0 0 C15.18 0 30.36 0 46 0 C46 0.66 46 1.32 46 2 C45.374 2.182 44.747 2.364 44.102 2.551 C43.284 2.802 42.467 3.054 41.625 3.312 C40.813 3.556 40.001 3.8 39.164 4.051 C36.668 4.914 36.668 4.914 35 8 C34.796 10.455 34.706 12.798 34.709 15.254 C34.703 15.989 34.696 16.724 34.689 17.482 C34.67 19.914 34.666 22.345 34.664 24.777 C34.658 26.467 34.651 28.157 34.644 29.848 C34.632 33.391 34.628 36.934 34.629 40.477 C34.63 45.018 34.602 49.559 34.568 54.099 C34.546 57.59 34.542 61.081 34.543 64.571 C34.54 66.246 34.531 67.92 34.516 69.594 C34.496 71.935 34.502 74.275 34.514 76.617 C34.497 77.654 34.497 77.654 34.48 78.713 C34.524 82.079 34.799 83.743 36.899 86.43 C39.285 88.213 40.392 88.503 43.336 88.496 C44.562 88.497 44.562 88.497 45.812 88.498 C46.658 88.478 47.504 88.458 48.375 88.438 C49.213 88.445 50.051 88.452 50.914 88.459 C56.828 88.399 61.17 87.484 65.758 83.457 C69.278 79.223 71.713 75.013 74 70 C74.66 70 75.32 70 76 70 C75.883 72.105 75.756 74.209 75.625 76.312 C75.555 77.484 75.486 78.656 75.414 79.863 C74.905 84.947 73.914 89.973 73 95 C48.91 95 24.82 95 0 95 C0 94.34 0 93.68 0 93 C0.626 92.83 1.253 92.66 1.898 92.484 C2.716 92.242 3.533 92 4.375 91.75 C5.187 91.518 5.999 91.286 6.836 91.047 C9.623 89.699 9.938 88.895 11 86 C11.19 83.476 11.273 81.064 11.259 78.541 C11.262 77.796 11.266 77.051 11.269 76.283 C11.278 73.824 11.272 71.365 11.266 68.906 C11.267 67.195 11.269 65.484 11.271 63.773 C11.274 60.189 11.27 56.604 11.261 53.02 C11.249 48.427 11.256 43.833 11.268 39.24 C11.275 35.707 11.273 32.175 11.268 28.642 C11.266 26.948 11.268 25.254 11.273 23.561 C11.278 21.193 11.27 18.826 11.259 16.459 C11.263 15.76 11.267 15.06 11.271 14.34 C11.24 10.752 11.091 7.989 9 5 C6.837 3.877 6.837 3.877 4.375 3.25 C3.558 3.008 2.74 2.765 1.898 2.516 C1.272 2.345 0.645 2.175 0 2 C0 1.34 0 0.68 0 0 Z " fill="#0E0099" transform="translate(1228,32)"/>
<path d="M0 0 C15.18 0 30.36 0 46 0 C46 0.66 46 1.32 46 2 C45.374 2.182 44.747 2.364 44.102 2.551 C43.284 2.802 42.467 3.054 41.625 3.312 C40.813 3.556 40.001 3.8 39.164 4.051 C36.668 4.914 36.668 4.914 35 8 C34.796 10.546 34.706 12.983 34.709 15.529 C34.703 16.294 34.696 17.058 34.689 17.846 C34.67 20.375 34.666 22.904 34.664 25.434 C34.658 27.191 34.651 28.948 34.644 30.706 C34.632 34.39 34.628 38.075 34.629 41.759 C34.63 46.482 34.602 51.204 34.568 55.926 C34.546 59.556 34.542 63.185 34.543 66.815 C34.54 68.556 34.531 70.297 34.516 72.038 C34.496 74.473 34.502 76.907 34.514 79.342 C34.497 80.421 34.497 80.421 34.48 81.522 C34.522 84.865 34.77 86.692 36.796 89.401 C39.69 91.501 42.542 92.202 46 93 C46 93.66 46 94.32 46 95 C30.82 95 15.64 95 0 95 C0 94.34 0 93.68 0 93 C0.626 92.818 1.253 92.636 1.898 92.449 C2.716 92.198 3.533 91.946 4.375 91.688 C5.187 91.444 5.999 91.2 6.836 90.949 C9.332 90.086 9.332 90.086 11 87 C11.204 84.454 11.294 82.017 11.291 79.471 C11.297 78.706 11.304 77.942 11.311 77.154 C11.33 74.625 11.334 72.096 11.336 69.566 C11.342 67.809 11.349 66.052 11.356 64.294 C11.368 60.61 11.372 56.925 11.371 53.241 C11.37 48.518 11.398 43.796 11.432 39.074 C11.454 35.444 11.458 31.815 11.457 28.185 C11.46 26.444 11.469 24.703 11.484 22.962 C11.504 20.527 11.498 18.093 11.486 15.658 C11.497 14.939 11.508 14.219 11.52 13.478 C11.478 10.135 11.23 8.308 9.204 5.599 C6.31 3.499 3.458 2.798 0 2 C0 1.34 0 0.68 0 0 Z " fill="#0E0099" transform="translate(1306,192)"/>
<path d="M0 0 C15.18 0 30.36 0 46 0 C46 0.66 46 1.32 46 2 C45.374 2.182 44.747 2.364 44.102 2.551 C43.284 2.802 42.467 3.054 41.625 3.312 C40.813 3.556 40.001 3.8 39.164 4.051 C36.668 4.914 36.668 4.914 35 8 C34.796 10.546 34.706 12.983 34.709 15.529 C34.703 16.294 34.696 17.058 34.689 17.846 C34.67 20.375 34.666 22.904 34.664 25.434 C34.658 27.191 34.651 28.948 34.644 30.706 C34.632 34.39 34.628 38.075 34.629 41.759 C34.63 46.482 34.602 51.204 34.568 55.926 C34.546 59.556 34.542 63.185 34.543 66.815 C34.54 68.556 34.531 70.297 34.516 72.038 C34.496 74.473 34.502 76.907 34.514 79.342 C34.497 80.421 34.497 80.421 34.48 81.522 C34.522 84.865 34.77 86.692 36.796 89.401 C39.69 91.501 42.542 92.202 46 93 C46 93.66 46 94.32 46 95 C30.82 95 15.64 95 0 95 C0 94.34 0 93.68 0 93 C0.626 92.818 1.253 92.636 1.898 92.449 C2.716 92.198 3.533 91.946 4.375 91.688 C5.187 91.444 5.999 91.2 6.836 90.949 C9.332 90.086 9.332 90.086 11 87 C11.204 84.454 11.294 82.017 11.291 79.471 C11.297 78.706 11.304 77.942 11.311 77.154 C11.33 74.625 11.334 72.096 11.336 69.566 C11.342 67.809 11.349 66.052 11.356 64.294 C11.368 60.61 11.372 56.925 11.371 53.241 C11.37 48.518 11.398 43.796 11.432 39.074 C11.454 35.444 11.458 31.815 11.457 28.185 C11.46 26.444 11.469 24.703 11.484 22.962 C11.504 20.527 11.498 18.093 11.486 15.658 C11.497 14.939 11.508 14.219 11.52 13.478 C11.478 10.135 11.23 8.308 9.204 5.599 C6.31 3.499 3.458 2.798 0 2 C0 1.34 0 0.68 0 0 Z " fill="#0E0099" transform="translate(1556,32)"/>
<path d="M0 0 C2.64 0 5.28 0 8 0 C8 0.66 8 1.32 8 2 C8.82 1.515 8.82 1.515 9.656 1.02 C12.423 -0.184 14.491 -0.3 17.5 -0.312 C18.438 -0.329 19.377 -0.346 20.344 -0.363 C23.402 0.055 24.657 1.068 27 3 C29.32 2.782 30.775 2.13 32.785 0.969 C36.971 -0.862 41.524 -0.438 46 0 C49.74 1.603 50.732 2.597 53 6 C54.199 14.657 52.108 23.634 50 32 C49 33 49 33 47.152 33.098 C45.102 33.065 43.051 33.033 41 33 C41.446 28.322 41.978 23.871 43.125 19.312 C44.012 15.597 43.962 12.751 43 9 C38.388 8.096 38.388 8.096 33.75 8.438 C27.707 13.833 27.404 25.351 26 33 C23.03 33 20.06 33 17 33 C17.133 32.261 17.266 31.523 17.402 30.762 C18.605 23.852 19.477 16.994 20 10 C17.114 7.644 17.114 7.644 13.5 8.188 C9.935 9.015 9.145 9.249 7 12 C6.139 14.299 6.139 14.299 5.613 16.887 C5.289 18.293 5.289 18.293 4.959 19.729 C4.746 20.705 4.532 21.681 4.312 22.688 C4.088 23.676 3.863 24.664 3.631 25.682 C3.077 28.119 2.534 30.558 2 33 C-0.97 33 -3.94 33 -7 33 C-6.215 28.624 -5.421 24.249 -4.625 19.875 C-4.403 18.637 -4.182 17.4 -3.953 16.125 C-3.734 14.926 -3.515 13.727 -3.289 12.492 C-3.09 11.392 -2.891 10.293 -2.686 9.16 C-2.002 6.007 -1.077 3.039 0 0 Z " fill="#0E0099" transform="translate(926,332)"/>
<path d="M0 0 C1.145 0.743 1.145 0.743 2.312 1.5 C2.642 0.51 2.973 -0.48 3.312 -1.5 C5.953 -1.5 8.592 -1.5 11.312 -1.5 C10.631 5.666 9.435 12.636 8 19.688 C7.8 20.741 7.599 21.795 7.393 22.881 C5.551 31.929 2.755 36.958 -4.688 42.5 C-10.86 44.557 -19.229 44.619 -25.453 42.605 C-27.625 41.5 -27.625 41.5 -30.688 39.5 C-28.062 34.625 -28.062 34.625 -24.688 33.5 C-24.007 33.809 -23.326 34.119 -22.625 34.438 C-17.294 36.366 -11.792 36.384 -6.562 34.188 C-5.944 33.631 -5.325 33.074 -4.688 32.5 C-4.688 31.51 -4.688 30.52 -4.688 29.5 C-5.678 29.83 -6.668 30.16 -7.688 30.5 C-13.011 31.01 -17.346 31.171 -22.188 28.75 C-27.454 24.01 -27.454 24.01 -28.121 19.695 C-28.129 13.468 -28.116 9.278 -23.688 4.5 C-16.858 -2.026 -8.878 -3.611 0 0 Z M-18.688 10.5 C-19.781 13.267 -20.133 15.551 -19.688 18.5 C-17.854 21.667 -17.854 21.667 -14.688 23.5 C-10.248 24.226 -8.255 23.815 -4.312 21.625 C-1.643 19.464 -0.834 18.769 -0.449 15.441 C-0.193 10.632 -0.193 10.632 -2.188 6.438 C-9.104 3.844 -13.88 4.872 -18.688 10.5 Z " fill="#0E0099" transform="translate(1503.6875,333.5)"/>
<path d="M0 0 C1.145 0.743 1.145 0.743 2.312 1.5 C2.643 0.51 2.972 -0.48 3.312 -1.5 C5.952 -1.5 8.592 -1.5 11.312 -1.5 C10.631 5.666 9.435 12.636 8 19.688 C7.8 20.741 7.599 21.795 7.393 22.881 C5.551 31.929 2.755 36.958 -4.688 42.5 C-10.86 44.557 -19.229 44.619 -25.453 42.605 C-27.625 41.5 -27.625 41.5 -30.688 39.5 C-28.062 34.625 -28.062 34.625 -24.688 33.5 C-24.007 33.809 -23.326 34.119 -22.625 34.438 C-17.294 36.366 -11.792 36.384 -6.562 34.188 C-5.944 33.631 -5.325 33.074 -4.688 32.5 C-4.688 31.51 -4.688 30.52 -4.688 29.5 C-5.678 29.83 -6.668 30.16 -7.688 30.5 C-13.011 31.01 -17.346 31.171 -22.188 28.75 C-27.454 24.01 -27.454 24.01 -28.121 19.695 C-28.129 13.468 -28.116 9.278 -23.688 4.5 C-16.858 -2.026 -8.878 -3.611 0 0 Z M-18.688 10.5 C-19.781 13.267 -20.133 15.551 -19.688 18.5 C-17.854 21.667 -17.854 21.667 -14.688 23.5 C-10.248 24.226 -8.255 23.815 -4.312 21.625 C-1.643 19.464 -0.834 18.769 -0.449 15.441 C-0.193 10.632 -0.193 10.632 -2.188 6.438 C-9.104 3.844 -13.88 4.872 -18.688 10.5 Z " fill="#0E0099" transform="translate(681.6875,333.5)"/>
<path d="M0 0 C2.64 0 5.28 0 8 0 C9.32 6.93 10.64 13.86 12 21 C15.96 14.07 19.92 7.14 24 0 C26.64 0 29.28 0 32 0 C32.193 0.846 32.387 1.691 32.586 2.562 C32.977 4.264 32.977 4.264 33.375 6 C33.63 7.114 33.885 8.228 34.148 9.375 C35.061 13.259 36.032 17.129 37 21 C40.96 14.07 44.92 7.14 49 0 C51.64 0 54.28 0 57 0 C54.73 5.976 51.611 11.456 48.562 17.062 C47.977 18.151 47.391 19.24 46.787 20.361 C46.219 21.409 45.651 22.456 45.066 23.535 C44.55 24.488 44.034 25.441 43.502 26.422 C43.006 27.273 42.511 28.124 42 29 C41.441 30.159 41.441 30.159 40.871 31.342 C39 33 39 33 30 33 C28.68 26.4 27.36 19.8 26 13 C25.218 14.36 24.435 15.72 23.629 17.121 C22.607 18.893 21.585 20.665 20.562 22.438 C20.046 23.335 19.53 24.233 18.998 25.158 C18.505 26.012 18.012 26.866 17.504 27.746 C17.048 28.537 16.593 29.328 16.123 30.142 C15 32 15 32 14 33 C11.329 33.141 8.676 33.042 6 33 C4.223 27.189 3.003 21.343 1.875 15.375 C1.602 13.983 1.602 13.983 1.324 12.562 C1.153 11.663 0.981 10.763 0.805 9.836 C0.65 9.027 0.495 8.218 0.335 7.384 C-0.015 4.892 -0.058 2.513 0 0 Z " fill="#0E0099" transform="translate(1035,332)"/>
<path d="M0 0 C2.97 0 5.94 0 9 0 C8.01 4.95 7.02 9.9 6 15 C7.32 14.34 8.64 13.68 10 13 C15.267 12.316 19.685 12.366 24.5 14.688 C27.911 17.843 29.759 19.81 30.281 24.555 C30.461 30.075 30.323 34.39 27 39 C22.155 43.856 18.636 46.135 11.625 46.25 C7.263 46.227 4.472 45.873 1 43 C0.34 43.99 -0.32 44.98 -1 46 C-2.945 46.293 -2.945 46.293 -5.125 46.188 C-6.404 46.126 -7.683 46.064 -9 46 C-6.206 30.62 -3.33 15.274 0 0 Z M5 23 C2.868 26.197 2.68 27.288 2.625 31 C2.597 31.866 2.568 32.733 2.539 33.625 C2.795 36.126 2.795 36.126 4.777 37.785 C8.117 39.61 11.334 39.663 15 39 C18.443 36.904 20.747 34.873 22 31 C22.605 26.939 22.358 25.499 19.938 22.125 C14.693 18.331 9.987 19.153 5 23 Z " fill="#0E0099" transform="translate(830,319)"/>
<path d="M0 0 C1.396 0.018 2.792 0.039 4.188 0.062 C6.383 0.062 8.581 0.041 10.773 -0.078 C15.395 -0.259 18.461 -0.288 22.688 1.75 C26.099 4.905 27.946 6.873 28.469 11.617 C28.648 17.138 28.511 21.453 25.188 26.062 C20.343 30.919 16.823 33.197 9.812 33.312 C8.409 33.351 8.409 33.351 6.977 33.391 C4.188 33.062 4.188 33.062 -0.812 30.062 C-2.133 35.012 -3.452 39.962 -4.812 45.062 C-7.452 45.062 -10.092 45.062 -12.812 45.062 C-12.216 39.151 -11.396 33.384 -10.219 27.562 C-9.991 26.42 -9.991 26.42 -9.759 25.254 C-9.442 23.664 -9.123 22.074 -8.801 20.485 C-8.308 18.042 -7.824 15.597 -7.34 13.152 C-7.029 11.601 -6.718 10.051 -6.406 8.5 C-6.261 7.768 -6.117 7.036 -5.967 6.281 C-4.703 0.077 -4.703 0.077 0 0 Z M3.188 10.062 C1.056 13.26 0.868 14.35 0.812 18.062 C0.784 18.929 0.756 19.795 0.727 20.688 C0.983 23.189 0.983 23.189 2.965 24.848 C6.304 26.673 9.522 26.726 13.188 26.062 C16.631 23.967 18.934 21.936 20.188 18.062 C20.792 14.002 20.546 12.562 18.125 9.188 C12.881 5.394 8.175 6.215 3.188 10.062 Z " fill="#0E0099" transform="translate(724.8125,331.9375)"/>
<path d="M0 0 C2.97 0 5.94 0 9 0 C8.01 4.95 7.02 9.9 6 15 C7.32 14.34 8.64 13.68 10 13 C15.06 12.343 20.215 12.007 24.625 14.875 C27.061 17.054 27.89 17.874 28.203 21.074 C28.351 29.318 27.01 37.021 25 45 C24 46 24 46 22.152 46.098 C20.102 46.065 18.051 46.033 16 46 C16.424 41.835 16.866 37.734 17.617 33.613 C17.826 32.462 18.035 31.311 18.25 30.125 C18.461 29.034 18.673 27.944 18.891 26.82 C19.267 24.024 19.267 24.024 17.797 22.109 C15.58 20.741 14.555 20.748 12 21.125 C11.319 21.21 10.639 21.295 9.938 21.383 C7.4 22.191 6.562 22.812 5 25 C4.173 27.642 3.481 30.184 2.875 32.875 C2.706 33.583 2.537 34.29 2.363 35.02 C1.501 38.665 0.707 42.321 0 46 C-2.97 46 -5.94 46 -9 46 C-7.716 37.065 -6.132 28.212 -4.341 19.367 C-3.931 17.343 -3.527 15.318 -3.123 13.293 C-1.134 3.402 -1.134 3.402 0 0 Z " fill="#0E0099" transform="translate(1302,319)"/>
<path d="M0 0 C2.97 0 5.94 0 9 0 C8.01 4.95 7.02 9.9 6 15 C7.32 14.34 8.64 13.68 10 13 C15.06 12.343 20.215 12.007 24.625 14.875 C27.061 17.054 27.89 17.874 28.203 21.074 C28.351 29.318 27.01 37.021 25 45 C24 46 24 46 22.152 46.098 C20.102 46.065 18.051 46.033 16 46 C16.424 41.835 16.866 37.734 17.617 33.613 C17.826 32.462 18.035 31.311 18.25 30.125 C18.461 29.034 18.673 27.944 18.891 26.82 C19.267 24.024 19.267 24.024 17.797 22.109 C15.58 20.741 14.555 20.748 12 21.125 C11.319 21.21 10.639 21.295 9.938 21.383 C7.4 22.191 6.562 22.812 5 25 C4.173 27.642 3.481 30.184 2.875 32.875 C2.706 33.583 2.537 34.29 2.363 35.02 C1.501 38.665 0.707 42.321 0 46 C-2.97 46 -5.94 46 -9 46 C-7.716 37.065 -6.132 28.212 -4.341 19.367 C-3.931 17.343 -3.527 15.318 -3.123 13.293 C-1.134 3.402 -1.134 3.402 0 0 Z " fill="#0E0099" transform="translate(1144,319)"/>
<path d="M0 0 C4.142 3.929 4.142 3.929 5.438 7.312 C5.438 10.942 5.438 14.572 5.438 18.312 C-3.142 18.312 -11.723 18.312 -20.562 18.312 C-19.902 19.632 -19.243 20.952 -18.562 22.312 C-12.598 24.301 -7.308 23.611 -1.562 21.312 C-0.572 23.293 0.418 25.272 1.438 27.312 C-5.206 31.401 -10.797 32.369 -18.562 31.312 C-22.297 30.083 -24.798 28.126 -27.5 25.25 C-29.364 20.097 -29.603 14.464 -27.871 9.219 C-22.379 -1.26 -10.694 -5.066 0 0 Z M-19.562 10.312 C-19.562 10.973 -19.562 11.632 -19.562 12.312 C-13.953 12.312 -8.342 12.312 -2.562 12.312 C-3.054 7.451 -3.054 7.451 -5.562 5.312 C-11.822 4.144 -15.653 5.016 -19.562 10.312 Z " fill="#0E0099" transform="translate(1247.5625,333.6875)"/>
<path d="M0 0 C4.142 3.929 4.142 3.929 5.438 7.312 C5.438 10.942 5.438 14.572 5.438 18.312 C-3.143 18.312 -11.722 18.312 -20.562 18.312 C-19.903 19.632 -19.242 20.952 -18.562 22.312 C-12.598 24.301 -7.308 23.611 -1.562 21.312 C-0.572 23.293 0.418 25.272 1.438 27.312 C-5.206 31.401 -10.797 32.369 -18.562 31.312 C-22.297 30.083 -24.798 28.126 -27.5 25.25 C-29.364 20.097 -29.603 14.464 -27.871 9.219 C-22.379 -1.26 -10.694 -5.066 0 0 Z M-19.562 10.312 C-19.562 10.973 -19.562 11.632 -19.562 12.312 C-13.952 12.312 -8.342 12.312 -2.562 12.312 C-3.054 7.451 -3.054 7.451 -5.562 5.312 C-11.822 4.144 -15.653 5.016 -19.562 10.312 Z " fill="#0E0099" transform="translate(910.5625,333.6875)"/>
<path d="M0 0 C2.64 0 5.28 0 8 0 C9.659 4.738 10.936 9.504 12.125 14.375 C12.307 15.111 12.489 15.847 12.676 16.605 C13.119 18.403 13.56 20.201 14 22 C14.377 21.334 14.754 20.667 15.142 19.98 C16.873 16.966 18.654 13.984 20.438 11 C21.326 9.426 21.326 9.426 22.232 7.82 C26.774 0.34 26.774 0.34 30.481 -0.688 C32.761 -0.688 34.78 -0.504 37 0 C32.12 8.677 26.797 16.944 21.217 25.179 C20.062 26.908 18.939 28.653 17.828 30.41 C9.966 42.707 9.966 42.707 5 45 C-0.27 45.801 -4.498 46.001 -9 43 C-7.926 40.085 -7.222 38.222 -5 36 C-4.34 36.33 -3.68 36.66 -3 37 C1.105 37.437 1.105 37.437 4.701 35.768 C6.864 32.824 5.952 30.241 5.489 26.772 C4.705 22.324 3.615 17.984 2.438 13.625 C1.974 11.889 1.514 10.152 1.059 8.414 C0.855 7.661 0.652 6.907 0.443 6.131 C0 4 0 4 0 0 Z " fill="#0E0099" transform="translate(1520,332)"/>
<path d="M0 0 C3.816 2.018 6.24 4.244 7.699 8.277 C8.587 15.435 8.071 20.488 3.699 26.277 C-2.118 31.797 -7.547 32.738 -15.352 32.594 C-20.591 32.032 -23.611 30.076 -27.238 26.215 C-29.105 21.054 -29.363 15.389 -27.574 10.148 C-22.034 -0.279 -10.971 -3.446 0 0 Z M-19.113 11.59 C-20.559 14.862 -20.891 16.738 -20.301 20.277 C-18.364 23.298 -18.364 23.298 -15.301 25.277 C-11.44 25.829 -9.127 25.634 -5.551 24.09 C-2.01 21.238 -0.549 18.764 0.199 14.277 C-0.495 10.113 -1.908 8.731 -5.301 6.277 C-11.446 5.399 -15.283 6.703 -19.113 11.59 Z " fill="#0E0099" transform="translate(1464.30078125,332.72265625)"/>
<path d="M0 0 C3.816 2.018 6.24 4.244 7.699 8.277 C8.587 15.435 8.071 20.488 3.699 26.277 C-2.118 31.797 -7.547 32.738 -15.352 32.594 C-20.591 32.032 -23.611 30.076 -27.238 26.215 C-29.105 21.054 -29.363 15.389 -27.574 10.148 C-22.034 -0.279 -10.971 -3.446 0 0 Z M-19.113 11.59 C-20.559 14.862 -20.891 16.738 -20.301 20.277 C-18.364 23.298 -18.364 23.298 -15.301 25.277 C-11.44 25.829 -9.127 25.634 -5.551 24.09 C-2.01 21.238 -0.549 18.764 0.199 14.277 C-0.495 10.113 -1.908 8.731 -5.301 6.277 C-11.446 5.399 -15.283 6.703 -19.113 11.59 Z " fill="#0E0099" transform="translate(1406.30078125,332.72265625)"/>
<path d="M0 0 C3.816 2.018 6.24 4.244 7.699 8.277 C8.587 15.435 8.071 20.488 3.699 26.277 C-2.118 31.797 -7.547 32.738 -15.352 32.594 C-20.591 32.032 -23.611 30.076 -27.238 26.215 C-29.105 21.054 -29.363 15.389 -27.574 10.148 C-22.034 -0.279 -10.971 -3.446 0 0 Z M-19.113 11.59 C-20.559 14.862 -20.891 16.738 -20.301 20.277 C-18.364 23.298 -18.364 23.298 -15.301 25.277 C-11.44 25.829 -9.127 25.634 -5.551 24.09 C-2.01 21.238 -0.549 18.764 0.199 14.277 C-0.495 10.113 -1.908 8.731 -5.301 6.277 C-11.446 5.399 -15.283 6.703 -19.113 11.59 Z " fill="#0E0099" transform="translate(809.30078125,332.72265625)"/>
<path d="M0 0 C3.816 2.018 6.24 4.244 7.699 8.277 C8.587 15.435 8.071 20.488 3.699 26.277 C-2.118 31.797 -7.547 32.738 -15.352 32.594 C-20.591 32.032 -23.611 30.076 -27.238 26.215 C-29.105 21.054 -29.363 15.389 -27.574 10.148 C-22.034 -0.279 -10.971 -3.446 0 0 Z M-19.113 11.59 C-20.559 14.862 -20.891 16.738 -20.301 20.277 C-18.364 23.298 -18.364 23.298 -15.301 25.277 C-11.44 25.829 -9.127 25.634 -5.551 24.09 C-2.01 21.238 -0.549 18.764 0.199 14.277 C-0.495 10.113 -1.908 8.731 -5.301 6.277 C-11.446 5.399 -15.283 6.703 -19.113 11.59 Z " fill="#0E0099" transform="translate(528.30078125,332.72265625)"/>
<path d="M0 0 C2.97 0 5.94 0 9 0 C9 0.66 9 1.32 9 2 C9.549 1.678 10.098 1.355 10.664 1.023 C14.932 -0.846 19.437 -0.554 24 0 C27.153 1.295 29.438 2.877 31 6 C31.867 14.851 30.154 23.451 28 32 C27 33 27 33 25.152 33.098 C23.102 33.065 21.051 33.033 19 33 C19.424 28.835 19.866 24.734 20.617 20.613 C20.826 19.462 21.035 18.311 21.25 17.125 C21.461 16.034 21.673 14.944 21.891 13.82 C22.267 11.024 22.267 11.024 20.797 9.109 C18.58 7.741 17.555 7.748 15 8.125 C14.319 8.21 13.639 8.295 12.938 8.383 C10.4 9.191 9.562 9.812 8 12 C7.173 14.642 6.481 17.184 5.875 19.875 C5.706 20.583 5.537 21.29 5.363 22.02 C4.501 25.665 3.707 29.321 3 33 C0.03 33 -2.94 33 -6 33 C-4.461 21.904 -2.253 10.969 0 0 Z " fill="#0E0099" transform="translate(1342,332)"/>
<path d="M0 0 C2.97 0 5.94 0 9 0 C9 0.66 9 1.32 9 2 C9.549 1.678 10.098 1.355 10.664 1.023 C14.932 -0.846 19.437 -0.554 24 0 C27.153 1.295 29.438 2.877 31 6 C31.867 14.851 30.154 23.451 28 32 C27 33 27 33 25.152 33.098 C23.102 33.065 21.051 33.033 19 33 C19.424 28.835 19.866 24.734 20.617 20.613 C20.826 19.462 21.035 18.311 21.25 17.125 C21.461 16.034 21.673 14.944 21.891 13.82 C22.267 11.024 22.267 11.024 20.797 9.109 C18.58 7.741 17.555 7.748 15 8.125 C14.319 8.21 13.639 8.295 12.938 8.383 C10.4 9.191 9.562 9.812 8 12 C7.173 14.642 6.481 17.184 5.875 19.875 C5.706 20.583 5.537 21.29 5.363 22.02 C4.501 25.665 3.707 29.321 3 33 C0.03 33 -2.94 33 -6 33 C-4.461 21.904 -2.253 10.969 0 0 Z " fill="#0E0099" transform="translate(617,332)"/>
<path d="M0 0 C1.794 -0.008 1.794 -0.008 3.625 -0.016 C6.858 0.239 9.094 0.863 12 2.25 C11.125 7 11.125 7 10 9.25 C9.295 9.086 8.59 8.923 7.863 8.754 C4.903 8.233 2.189 8.151 -0.812 8.188 C-1.788 8.197 -2.764 8.206 -3.77 8.215 C-4.506 8.226 -5.242 8.238 -6 8.25 C-6.66 9.57 -7.32 10.89 -8 12.25 C-6.679 12.505 -6.679 12.505 -5.332 12.766 C-4.171 13.008 -3.009 13.25 -1.812 13.5 C-0.664 13.732 0.485 13.964 1.668 14.203 C5.277 15.337 7.331 16.586 10 19.25 C10.679 23.4 10.482 25.446 8.312 29.062 C2.879 34.203 -3.258 33.596 -10.371 33.52 C-14.648 33.202 -17.335 32.395 -21 30.25 C-20.01 28.27 -19.02 26.29 -18 24.25 C-17.162 24.414 -16.324 24.577 -15.461 24.746 C-11.795 25.28 -8.328 25.347 -4.625 25.312 C-3.38 25.303 -2.135 25.294 -0.852 25.285 C0.089 25.274 1.03 25.262 2 25.25 C1.67 24.26 1.34 23.27 1 22.25 C-1.628 21.363 -1.628 21.363 -4.75 20.812 C-13.3 18.817 -13.3 18.817 -16 15.25 C-16.672 10.549 -16.709 8.458 -14.312 4.375 C-9.926 0.344 -5.832 -0.025 0 0 Z " fill="#0E0099" transform="translate(1002,331.75)"/>
<path d="M0 0 C1.794 -0.008 1.794 -0.008 3.625 -0.016 C6.858 0.239 9.094 0.863 12 2.25 C11.125 7 11.125 7 10 9.25 C9.295 9.086 8.59 8.923 7.863 8.754 C4.903 8.233 2.189 8.151 -0.812 8.188 C-1.788 8.197 -2.764 8.206 -3.77 8.215 C-4.506 8.226 -5.242 8.238 -6 8.25 C-6.66 9.57 -7.32 10.89 -8 12.25 C-6.679 12.505 -6.679 12.505 -5.332 12.766 C-4.171 13.008 -3.009 13.25 -1.812 13.5 C-0.664 13.732 0.485 13.964 1.668 14.203 C5.277 15.337 7.331 16.586 10 19.25 C10.679 23.4 10.482 25.446 8.312 29.062 C2.879 34.203 -3.258 33.596 -10.371 33.52 C-14.648 33.202 -17.335 32.395 -21 30.25 C-20.01 28.27 -19.02 26.29 -18 24.25 C-17.162 24.414 -16.324 24.577 -15.461 24.746 C-11.795 25.28 -8.328 25.347 -4.625 25.312 C-3.38 25.303 -2.135 25.294 -0.852 25.285 C0.089 25.274 1.03 25.262 2 25.25 C1.67 24.26 1.34 23.27 1 22.25 C-1.628 21.363 -1.628 21.363 -4.75 20.812 C-13.3 18.817 -13.3 18.817 -16 15.25 C-16.672 10.549 -16.709 8.458 -14.312 4.375 C-9.926 0.344 -5.832 -0.025 0 0 Z " fill="#0E0099" transform="translate(485,331.75)"/>
<path d="M0 0 C2.933 1.849 4.725 3.99 5.887 7.242 C3.637 8.867 3.637 8.867 0.887 10.242 C-1.301 9.492 -1.301 9.492 -3.113 8.242 C-6.33 6.634 -9.635 6.629 -13.113 7.242 C-16.791 10.216 -18.911 12.383 -19.426 17.117 C-19.354 20.276 -19.354 20.276 -17.551 22.617 C-14.187 24.86 -12.087 24.73 -8.113 24.242 C-7.247 23.706 -6.381 23.17 -5.488 22.617 C-4.705 22.163 -3.921 21.71 -3.113 21.242 C-0.301 22.055 -0.301 22.055 1.887 23.242 C1.887 24.562 1.887 25.882 1.887 27.242 C-3.449 32.29 -8.017 32.592 -15.094 32.523 C-20.387 32.03 -23.394 30.072 -27.051 26.18 C-28.918 21.019 -29.175 15.353 -27.387 10.113 C-22.017 0.007 -10.739 -3.851 0 0 Z " fill="#0E0099" transform="translate(1286.11328125,332.7578125)"/>
<path d="M0 0 C2.64 0 5.28 0 8 0 C8.266 1.002 8.531 2.003 8.805 3.035 C9.161 4.378 9.518 5.72 9.875 7.062 C10.049 7.719 10.223 8.376 10.402 9.053 C11.554 13.383 12.757 17.695 14 22 C14.318 21.476 14.635 20.951 14.962 20.411 C16.41 18.023 17.861 15.636 19.312 13.25 C19.812 12.425 20.312 11.6 20.826 10.75 C21.313 9.951 21.799 9.152 22.301 8.328 C22.746 7.595 23.191 6.862 23.65 6.106 C25.016 3.974 26.371 1.941 28 0 C30.262 -0.391 30.262 -0.391 32.688 -0.25 C33.496 -0.214 34.304 -0.178 35.137 -0.141 C36.059 -0.071 36.059 -0.071 37 0 C32.664 7.757 27.969 15.241 23.125 22.688 C22.25 24.034 22.25 24.034 21.357 25.407 C17.138 31.862 17.138 31.862 16 33 C14.481 33.072 12.958 33.084 11.438 33.062 C10.611 33.053 9.785 33.044 8.934 33.035 C8.296 33.024 7.657 33.012 7 33 C5.997 28.945 5 24.888 4.009 20.83 C3.671 19.45 3.332 18.071 2.991 16.692 C2.5 14.707 2.015 12.721 1.531 10.734 C1.238 9.54 0.945 8.346 0.643 7.116 C0 4 0 4 0 0 Z " fill="#0E0099" transform="translate(559,332)"/>
<path d="M0 0 C2.051 0.033 4.102 0.065 6.152 0.098 C5.822 2.738 5.492 5.378 5.152 8.098 C7.792 8.098 10.432 8.098 13.152 8.098 C12.822 10.408 12.492 12.718 12.152 15.098 C9.182 15.098 6.212 15.098 3.152 15.098 C2.814 17.159 2.482 19.222 2.152 21.285 C1.967 22.434 1.781 23.582 1.59 24.766 C1.217 27.602 1.066 30.245 1.152 33.098 C3.462 33.098 5.772 33.098 8.152 33.098 C8.812 35.078 9.472 37.058 10.152 39.098 C5.893 41.937 2.149 41.838 -2.848 41.098 C-5.973 39.223 -5.973 39.223 -7.848 36.098 C-8.955 29.37 -7.407 22.64 -5.848 16.098 C-7.168 15.768 -8.488 15.438 -9.848 15.098 C-9.518 12.788 -9.188 10.478 -8.848 8.098 C-7.198 8.098 -5.548 8.098 -3.848 8.098 C-3.703 6.963 -3.559 5.829 -3.41 4.66 C-2.697 0.143 -2.697 0.143 0 0 Z " fill="#0E0099" transform="translate(1204.84765625,323.90234375)"/>
<path d="M0 0 C2.051 0.033 4.102 0.065 6.152 0.098 C5.822 2.738 5.492 5.378 5.152 8.098 C7.792 8.098 10.432 8.098 13.152 8.098 C12.822 10.408 12.492 12.718 12.152 15.098 C9.182 15.098 6.212 15.098 3.152 15.098 C2.814 17.159 2.482 19.222 2.152 21.285 C1.967 22.434 1.781 23.582 1.59 24.766 C1.217 27.602 1.066 30.245 1.152 33.098 C3.462 33.098 5.772 33.098 8.152 33.098 C8.812 35.078 9.472 37.058 10.152 39.098 C5.893 41.937 2.149 41.838 -2.848 41.098 C-5.973 39.223 -5.973 39.223 -7.848 36.098 C-8.955 29.37 -7.407 22.64 -5.848 16.098 C-7.168 15.768 -8.488 15.438 -9.848 15.098 C-9.518 12.788 -9.188 10.478 -8.848 8.098 C-7.198 8.098 -5.548 8.098 -3.848 8.098 C-3.703 6.963 -3.559 5.829 -3.41 4.66 C-2.697 0.143 -2.697 0.143 0 0 Z " fill="#0E0099" transform="translate(1119.84765625,323.90234375)"/>
<path d="M0 0 C12.21 0 24.42 0 37 0 C37 3.96 37 7.92 37 12 C24.79 12 12.58 12 0 12 C0 8.04 0 4.08 0 0 Z " fill="#0E0099" transform="translate(950,74)"/>
<path d="M0 0 C2.051 0.033 4.102 0.065 6.152 0.098 C5.557 5.999 4.739 11.752 3.559 17.562 C3.407 18.322 3.255 19.081 3.099 19.864 C2.782 21.45 2.462 23.035 2.141 24.62 C1.649 27.053 1.164 29.486 0.68 31.92 C0.369 33.468 0.058 35.015 -0.254 36.562 C-0.399 37.29 -0.544 38.017 -0.693 38.766 C-1.732 43.867 -1.732 43.867 -2.848 46.098 C-5.488 46.098 -8.128 46.098 -10.848 46.098 C-10.215 37.394 -8.571 28.981 -6.836 20.445 C-6.343 18.011 -5.858 15.575 -5.375 13.139 C-5.064 11.592 -4.753 10.046 -4.441 8.5 C-4.297 7.771 -4.152 7.042 -4.003 6.291 C-2.744 0.145 -2.744 0.145 0 0 Z " fill="#0E0099" transform="translate(1428.84765625,318.90234375)"/>
<path d="M0 0 C2.051 0.033 4.102 0.065 6.152 0.098 C5.557 5.999 4.739 11.752 3.559 17.562 C3.407 18.322 3.255 19.081 3.099 19.864 C2.782 21.45 2.462 23.035 2.141 24.62 C1.649 27.053 1.164 29.486 0.68 31.92 C0.369 33.468 0.058 35.015 -0.254 36.562 C-0.399 37.29 -0.544 38.017 -0.693 38.766 C-1.732 43.867 -1.732 43.867 -2.848 46.098 C-5.488 46.098 -8.128 46.098 -10.848 46.098 C-10.215 37.394 -8.571 28.981 -6.836 20.445 C-6.343 18.011 -5.858 15.575 -5.375 13.139 C-5.064 11.592 -4.753 10.046 -4.441 8.5 C-4.297 7.771 -4.152 7.042 -4.003 6.291 C-2.744 0.145 -2.744 0.145 0 0 Z " fill="#0E0099" transform="translate(874.84765625,318.90234375)"/>
<path d="M0 0 C2.051 0.033 4.102 0.065 6.152 0.098 C5.557 5.999 4.739 11.752 3.559 17.562 C3.407 18.322 3.255 19.081 3.099 19.864 C2.782 21.45 2.462 23.035 2.141 24.62 C1.649 27.053 1.164 29.486 0.68 31.92 C0.369 33.468 0.058 35.015 -0.254 36.562 C-0.399 37.29 -0.544 38.017 -0.693 38.766 C-1.732 43.867 -1.732 43.867 -2.848 46.098 C-5.488 46.098 -8.128 46.098 -10.848 46.098 C-10.215 37.394 -8.571 28.981 -6.836 20.445 C-6.343 18.011 -5.858 15.575 -5.375 13.139 C-5.064 11.592 -4.753 10.046 -4.441 8.5 C-4.297 7.771 -4.152 7.042 -4.003 6.291 C-2.744 0.145 -2.744 0.145 0 0 Z " fill="#0E0099" transform="translate(550.84765625,318.90234375)"/>
<path d="M0 0 C2.64 0 5.28 0 8 0 C8 0.66 8 1.32 8 2 C8.495 1.67 8.99 1.34 9.5 1 C13.091 -0.436 16.145 -0.129 20 0 C19.67 2.64 19.34 5.28 19 8 C17.014 8.228 15.029 8.456 13.043 8.684 C10.806 8.972 10.806 8.972 8 10 C7.159 12.568 6.507 14.996 5.938 17.625 C5.614 19.034 5.29 20.443 4.965 21.852 C4.731 22.885 4.731 22.885 4.492 23.938 C3.764 26.991 2.889 29.99 2 33 C-0.64 33 -3.28 33 -6 33 C-5.33 25.678 -3.983 18.621 -2.438 11.438 C-2.204 10.333 -1.97 9.229 -1.729 8.092 C-1.156 5.394 -0.58 2.696 0 0 Z " fill="#0E0099" transform="translate(762,332)"/>
<path d="M0 0 C2.64 0 5.28 0 8 0 C6.461 11.096 4.253 22.031 2 33 C-0.97 33 -3.94 33 -7 33 C-6.215 28.624 -5.421 24.249 -4.625 19.875 C-4.403 18.637 -4.182 17.4 -3.953 16.125 C-3.734 14.926 -3.515 13.727 -3.289 12.492 C-3.09 11.392 -2.891 10.293 -2.686 9.16 C-2.002 6.007 -1.077 3.039 0 0 Z " fill="#0E0099" transform="translate(1097,332)"/>
<path d="M0 0 C2.64 0 5.28 0 8 0 C6.461 11.096 4.253 22.031 2 33 C-0.97 33 -3.94 33 -7 33 C-6.215 28.624 -5.421 24.249 -4.625 19.875 C-4.403 18.637 -4.182 17.4 -3.953 16.125 C-3.734 14.926 -3.515 13.727 -3.289 12.492 C-3.09 11.392 -2.891 10.293 -2.686 9.16 C-2.002 6.007 -1.077 3.039 0 0 Z " fill="#0E0099" transform="translate(599,332)"/>
<path d="M0 0 C3 0.25 3 0.25 5 2.25 C5.375 4.688 5.375 4.688 5 7.25 C3.312 9.125 3.312 9.125 1 10.25 C-3.41 9.84 -3.41 9.84 -5 8.25 C-5.188 5.312 -5.188 5.312 -5 2.25 C-3 0.25 -3 0.25 0 0 Z " fill="#0E0099" transform="translate(1103,316.75)"/>
<path d="M0 0 C3 0.25 3 0.25 5 2.25 C5.375 4.688 5.375 4.688 5 7.25 C3.312 9.125 3.312 9.125 1 10.25 C-3.41 9.84 -3.41 9.84 -5 8.25 C-5.188 5.312 -5.188 5.312 -5 2.25 C-3 0.25 -3 0.25 0 0 Z " fill="#0E0099" transform="translate(605,316.75)"/>
</svg>